<?xml version="1.0" encoding="utf-8"?>
<!-- Generator: Adobe Illustrator 25.0.1, SVG Export Plug-In . SVG Version: 6.00 Build 0)  -->
<svg version="1.1" id="Layer_1" xmlns="http://www.w3.org/2000/svg" xmlns:xlink="http://www.w3.org/1999/xlink" x="0px" y="0px"
	 viewBox="0 0 108 108" style="enable-background:new 0 0 108 108;" xml:space="preserve">
<style type="text/css">
	.st0{fill:#FFFFFF;}
</style>
<path class="st0" d="M59.42,20.47c0.74,0.88,1.5,1.79,2.38,2.85c0.54-0.75,0.96-1.34,1.57-2.2c-0.73-0.53-1.75-1.27-2.63-1.9
	c3.95-3.97,7.54-7.59,11.17-11.24c2.32,2.39,4.69,4.81,7.02,7.21c-0.6,0.74-1.45,1.53-1.98,2.5c-1.25,2.28-0.82,4.64,0.24,6.84
	c1.86,3.87,4.84,6.45,9.17,7.18c2.43,0.41,4.54-0.23,6.06-2.32c0.12-0.17,0.23-0.34,0.33-0.5c2.51,2.53,4.92,4.95,7.26,7.3
	c-21.25,21.23-42.56,42.53-63.85,63.81c-2.26-2.26-4.63-4.62-7-6.98c2.36-4.4,1.71-8.27-2.02-12.02c-3.79-3.81-7.64-4.47-12.1-2.11
	c-2.37-2.37-4.73-4.73-7.04-7.04C25.05,54.83,42.1,37.79,59.42,20.47z M76.43,34.54c-0.68,0.45-1.26,0.83-1.8,1.19
	c1.44,1.5,2.78,2.89,4.2,4.37c0.52-0.58,1-1.11,1.51-1.66C78.97,37.07,77.61,35.71,76.43,34.54z M67.79,25.93
	c-0.56,0.48-1.08,0.92-1.62,1.39c1.43,1.46,2.79,2.83,4.18,4.24c0.6-0.49,1.16-0.94,1.75-1.42C70.48,28.55,69.12,27.23,67.79,25.93z
	 M83.16,44.15c1.46,1.5,2.8,2.89,4.13,4.25c0.52-0.51,1-0.99,1.44-1.43c-1.36-1.38-2.71-2.76-4.11-4.18
	C84.1,43.28,83.6,43.74,83.16,44.15z"/>
</svg>
